<svg width="20" height="20" viewBox="0 0 20 20" fill="none" xmlns="http://www.w3.org/2000/svg">
  <path d="M12.9 3.5C13.6 4.9 13.35 6.66 12.15 7.86C11.67 8.34 11.08 8.67 10.44 8.82L6.15 13.11C5.43 13.83 4.27 13.83 3.55 13.11C2.83 12.39 2.83 11.23 3.55 10.51L7.84 6.22C7.99 5.58 8.32 4.99 8.8 4.51C10 3.31 11.76 3.06 13.2 3.76L10.88 6.08L13.12 8.32L15.44 6C16.14 7.44 15.89 9.2 14.69 10.4" stroke="#111827" stroke-width="1.7" stroke-linejoin="round"/>
  <path d="M12.9 12.9L16.45 16.45" stroke="#111827" stroke-width="1.7" stroke-linecap="round"/>
</svg>
